<?xml version="1.0" standalone="no"?>
<!DOCTYPE svg PUBLIC "-//W3C//DTD SVG 20010904//EN"
 "http://www.w3.org/TR/2001/REC-SVG-20010904/DTD/svg10.dtd">
<svg version="1.0" xmlns="http://www.w3.org/2000/svg"
 width="300.000000pt" height="300.000000pt" viewBox="0 0 300.000000 300.000000"
 preserveAspectRatio="xMidYMid meet">
<metadata>
Created by potrace 1.11, written by Peter Selinger 2001-2013
</metadata>
<g transform="translate(0.000000,300.000000) scale(0.100000,-0.100000)"
fill="#000000" stroke="none">
<path d="M0 1500 l0 -1500 1500 0 1500 0 0 1500 0 1500 -1500 0 -1500 0 0
-1500z m1092 1206 c150 -32 258 -83 365 -173 28 -24 59 -43 68 -43 10 0 32 12
50 28 51 43 95 75 121 88 13 7 36 19 51 28 145 82 375 107 554 61 73 -19 232
-95 269 -130 14 -12 35 -28 48 -34 34 -18 143 -150 179 -219 18 -33 41 -84 52
-114 24 -64 52 -249 46 -298 -2 -19 -9 -73 -15 -120 -20 -155 -60 -264 -145
-395 -29 -46 -63 -93 -74 -104 -12 -12 -21 -25 -21 -29 0 -16 -257 -269 -419
-412 -271 -240 -441 -418 -545 -573 -57 -84 -90 -107 -158 -107 -50 0 -58 3
-94 39 -21 21 -64 74 -94 117 -47 68 -339 372 -411 428 -39 31 -90 75 -150
130 -30 28 -86 78 -123 111 -138 123 -206 197 -300 332 -30 43 -59 83 -64 89
-19 21 -70 149 -98 244 -26 88 -28 108 -28 265 -1 159 1 175 26 245 113 320
342 508 683 560 83 13 110 11 227 -14z"/>
<path d="M825 2550 c-124 -18 -233 -76 -330 -175 -38 -39 -77 -85 -85 -101 -8
-16 -23 -40 -32 -54 -10 -14 -29 -63 -43 -109 -38 -128 -32 -314 16 -471 21
-69 104 -220 161 -293 35 -45 287 -296 348 -347 53 -44 137 -118 215 -191 22
-20 54 -49 70 -64 89 -80 163 -157 237 -248 136 -165 134 -164 155 -151 10 6
23 21 29 33 18 35 174 219 260 306 65 65 161 156 303 285 10 8 48 42 86 74 97
83 291 281 323 330 15 23 31 44 35 47 32 23 119 220 143 324 31 133 31 225 -1
343 -59 212 -210 374 -410 438 -66 22 -101 26 -200 27 -106 1 -130 -2 -205
-27 -47 -15 -92 -33 -100 -40 -8 -7 -26 -17 -40 -23 -38 -16 -105 -79 -163
-152 -74 -94 -76 -95 -117 -34 -42 62 -154 168 -214 201 -125 71 -279 96 -441
72z"/>
</g>
</svg>
